<?xml version="1.0" encoding="UTF-8" standalone="no"?>
<!-- Created with Inkscape (http://www.inkscape.org/) -->

<svg
   xmlns:dc="http://purl.org/dc/elements/1.1/"
   xmlns:cc="http://creativecommons.org/ns#"
   xmlns:rdf="http://www.w3.org/1999/02/22-rdf-syntax-ns#"
   xmlns:svg="http://www.w3.org/2000/svg"
   xmlns="http://www.w3.org/2000/svg"
   xmlns:sodipodi="http://sodipodi.sourceforge.net/DTD/sodipodi-0.dtd"
   xmlns:inkscape="http://www.inkscape.org/namespaces/inkscape"
   width="36.818886mm"
   height="8.2747555mm"
   viewBox="0 0 130.46062 29.32"
   id="svg2"
   version="1.1"
   inkscape:version="0.91 r13725"
   sodipodi:docname="lost_white.svg"
   inkscape:export-filename="/home/gereon/lost_white.png"
   inkscape:export-xdpi="96"
   inkscape:export-ydpi="96">
  <defs
     id="defs4" />
  <sodipodi:namedview
     id="base"
     pagecolor="#ffffff"
     bordercolor="#666666"
     borderopacity="1.0"
     inkscape:pageopacity="0.0"
     inkscape:pageshadow="2"
     inkscape:zoom="11.313709"
     inkscape:cx="65.08427"
     inkscape:cy="-0.53602966"
     inkscape:document-units="px"
     inkscape:current-layer="text11697"
     showgrid="false"
     inkscape:window-width="1910"
     inkscape:window-height="1051"
     inkscape:window-x="1920"
     inkscape:window-y="24"
     inkscape:window-maximized="0"
     showguides="false"
     fit-margin-top="0"
     fit-margin-left="0"
     fit-margin-right="0"
     fit-margin-bottom="0" />
  <metadata
     id="metadata7">
    <rdf:RDF>
      <cc:Work
         rdf:about="">
        <dc:format>image/svg+xml</dc:format>
        <dc:type
           rdf:resource="http://purl.org/dc/dcmitype/StillImage" />
        <dc:title></dc:title>
      </cc:Work>
    </rdf:RDF>
  </metadata>
  <g
     inkscape:label="Layer 1"
     inkscape:groupmode="layer"
     id="layer1"
     transform="translate(-323.96332,-336.19745)">
    <g
       style="font-style:normal;font-weight:normal;font-size:40px;line-height:125%;font-family:sans-serif;letter-spacing:0px;word-spacing:0px;writing-mode:tb-rl;fill:#000000;fill-opacity:1;stroke:none;stroke-width:1px;stroke-linecap:butt;stroke-linejoin:miter;stroke-opacity:1"
       id="text11697">
      <path
         d="m 335.80332,365.35745 c -7.89333,0 -11.84,-2.48 -11.84,-7.44 l 0,-19.84 c 0,-0.77333 0.22667,-1.28 0.68,-1.52 0.45333,-0.24 1.10667,-0.36 1.96,-0.36 0.88,0 1.54667,0.12 2,0.36 0.45333,0.24 0.68,0.74667 0.68,1.52 l 0,19.84 c 0,0.85333 0.52,1.58667 1.56,2.2 1.06667,0.61333 2.77333,0.92 5.12,0.92 l 19.6,0 c 0.64,0 14.72196,0.092 14.90863,0.4653 0.18666,0.34666 1.25858,0.96137 1.25858,1.6547 0,0.72 -1.13505,1.2351 -1.32172,1.60843 -0.18666,0.37334 0.0629,0.59157 -0.57709,0.59157 z"
         style="font-style:normal;font-variant:normal;font-weight:normal;font-stretch:normal;font-family:Neuropol;-inkscape-font-specification:Neuropol;text-align:center;writing-mode:lr-tb;text-anchor:middle;fill:#ffffff;fill-opacity:1;stroke:none;stroke-opacity:1"
         id="path11702"
         inkscape:connector-curvature="0"
         sodipodi:nodetypes="sssssssscsscssss" />
      <path
         d="m 370.13457,365.35745 q -11.84,0 -11.84,-7.44 l 0,-14.12 q 0,-7.44 11.84,-7.44 l 11.64,0 q 11.84,0 11.84,7.44 l 0,14.12 q 0,7.44 -11.84,7.44 l -11.64,0 z m 11.48,-4.32 q 3.52,0 5.12,-0.92 1.6,-0.92 1.6,-2.2 l 0,-14.12 q 0,-1.32 -1.6,-2.2 -1.6,-0.92 -5.12,-0.92 l -11.32,0 q -3.52,0 -5.12,0.92 -1.6,0.88 -1.6,2.2 l 0,14.12 q 0,1.28 1.6,2.2 1.6,0.92 5.12,0.92 l 11.32,0 z"
         style="font-style:normal;font-variant:normal;font-weight:normal;font-stretch:normal;font-family:Neuropol;-inkscape-font-specification:Neuropol;text-align:center;writing-mode:lr-tb;text-anchor:middle;fill:#ffffff;fill-opacity:1;stroke:none;stroke-opacity:1"
         id="path11704"
         inkscape:connector-curvature="0" />
      <path
         d="m 408.33394,352.79745 c -7.89333,0 -11.84,-2.48 -11.84,-7.44 l 0,-1.56 c 0,-4.96 3.9467,-7.46159 11.84,-7.44 l 16.32143,0.0446 c 0.64,0.002 1.05333,0.18667 1.24,0.56 0.21333,0.34667 0.32,0.88 0.32,1.6 0,0.72 -0.10667,1.26667 -0.32,1.64 -0.18667,0.34667 -0.0911,0.46609 -0.73107,0.46643 l -16.95036,0.009 c -2.34667,10e-4 -4.01333,0.30667 -5,0.92 -0.96,0.58667 -1.44,1.32 -1.44,2.2 l 0,1.56 c 0,0.85333 0.48,1.58667 1.44,2.2 0.98667,0.61333 2.65333,0.92 5,0.92 l 9.44,0 c 7.89333,0 11.84,2.48 11.84,7.44 l 0,2 c 0,4.96 -3.94667,7.44 -11.84,7.44 l -19.6,0 c -0.64,0 -1.06667,-0.17333 -1.28,-0.52 -0.18667,-0.37333 -0.28,-0.92 -0.28,-1.64 0,-0.72 0.0933,-1.25333 0.28,-1.6 0.21333,-0.37333 0.64,-0.56 1.28,-0.56 l 19.72,0 c 2.34667,0 4,-0.29333 4.96,-0.88 0.98667,-0.61333 1.48,-1.36 1.48,-2.24 l 0,-2 c 0,-0.85333 -0.49333,-1.58667 -1.48,-2.2 -0.96,-0.61333 -2.61333,-0.92 -4.96,-0.92 z"
         style="font-style:normal;font-variant:normal;font-weight:normal;font-stretch:normal;font-family:Neuropol;-inkscape-font-specification:Neuropol;text-align:center;writing-mode:lr-tb;text-anchor:middle;fill:#ffffff;fill-opacity:1;stroke:none;stroke-opacity:1"
         id="path11706"
         inkscape:connector-curvature="0"
         sodipodi:nodetypes="ssssscscsscsscsssssscscsscsscss" />
      <path
         d="m 440.78394,340.67745 0,22.96 c 0,0.77333 -0.22667,1.28 -0.68,1.52 -0.45333,0.24 -1.12,0.36 -2,0.36 -0.85333,0 -1.50667,-0.12 -1.96,-0.36 -0.45333,-0.24 -0.68,-0.74667 -0.68,-1.52 l 0,-22.96 -12.3525,0 c -0.64,0 -0.75417,-0.17333 -0.9675,-0.52 -0.18667,-0.37333 -0.28,-0.92 -0.28,-1.64 0,-0.72 0.0933,-1.25333 0.28,-1.6 0.21333,-0.37333 0.39447,-0.503 1.03447,-0.5042 l 29.68553,-0.0558 c 0.64,-10e-4 1.05333,0.18667 1.24,0.56 0.21333,0.34667 0.32,0.88 0.32,1.6 0,0.72 -0.10667,1.26667 -0.32,1.64 -0.18667,0.34667 -0.6,0.52 -1.24,0.52 z"
         style="font-style:normal;font-variant:normal;font-weight:normal;font-stretch:normal;font-family:Neuropol;-inkscape-font-specification:Neuropol;text-align:center;writing-mode:lr-tb;text-anchor:middle;fill:#ffffff;fill-opacity:1;stroke:none;stroke-opacity:1"
         id="path11708"
         inkscape:connector-curvature="0"
         sodipodi:nodetypes="cssssscscscsscscsc" />
    </g>
  </g>
</svg>
