<?xml version="1.0" encoding="UTF-8"?><svg xmlns="http://www.w3.org/2000/svg" xmlns:xlink="http://www.w3.org/1999/xlink" fill-opacity="1" color-rendering="auto" color-interpolation="auto" text-rendering="auto" stroke="black" stroke-linecap="square" width="1000" stroke-miterlimit="10" shape-rendering="auto" stroke-opacity="1" fill="black" stroke-dasharray="none" font-weight="normal" stroke-width="1" height="633" font-family="'Dialog'" font-style="normal" stroke-linejoin="miter" font-size="12px" stroke-dashoffset="0" image-rendering="auto">
  <!--Generated by ySVG 2.5-->
  <defs id="genericDefs"/>
  <g>
    <defs id="defs1">
      <clipPath clipPathUnits="userSpaceOnUse" id="clipPath1">
        <path d="M0 0 L1000 0 L1000 633 L0 633 L0 0 Z"/>
      </clipPath>
      <clipPath clipPathUnits="userSpaceOnUse" id="clipPath2">
        <path d="M28 112 L1028 112 L1028 745 L28 745 L28 112 Z"/>
      </clipPath>
      <clipPath clipPathUnits="userSpaceOnUse" id="clipPath3">
        <path d="M-660.9833 -561.7611 L374.6796 -561.7611 L374.6796 94.1841 L-660.9833 94.1841 L-660.9833 -561.7611 Z"/>
      </clipPath>
    </defs>
    <g fill="white" text-rendering="geometricPrecision" shape-rendering="geometricPrecision" transform="translate(-28,-112)" stroke="white">
      <rect x="28" width="1000" height="633" y="112" clip-path="url(#clipPath2)" stroke="none"/>
    </g>
    <g text-rendering="geometricPrecision" stroke-miterlimit="1.45" stroke-dasharray="4,3,0,3" shape-rendering="geometricPrecision" transform="matrix(1,0,0,1,-28,-112)" stroke-linecap="round">
      <path fill="none" d="M43 127.5 L1013 127.5 L1013 637.5 L43 637.5 Z" clip-path="url(#clipPath2)"/>
      <text stroke-linecap="butt" x="49" y="144.6387" clip-path="url(#clipPath2)" font-family="sans-serif" stroke-dasharray="none" stroke="none" xml:space="preserve">HOST Machine</text>
    </g>
    <g text-rendering="geometricPrecision" stroke-miterlimit="1.45" shape-rendering="geometricPrecision" transform="matrix(1,0,0,1,-28,-112)" stroke-linecap="butt">
      <path fill="none" d="M432 221 L957 221 L957 501 L432 501 Z" clip-path="url(#clipPath2)"/>
      <text x="438" xml:space="preserve" y="238.1387" clip-path="url(#clipPath2)" font-family="sans-serif" stroke="none">Docker Compose Containers:</text>
    </g>
    <g text-rendering="geometricPrecision" stroke-miterlimit="1.45" shape-rendering="geometricPrecision" transform="matrix(1,0,0,1,-28,-112)" stroke-linecap="butt">
      <path fill="none" d="M454.5 416.5 L587.5 416.5 L587.5 469.5 L454.5 469.5 Z" clip-path="url(#clipPath2)"/>
      <text x="482.917" xml:space="preserve" y="433.1855" clip-path="url(#clipPath2)" font-family="sans-serif" stroke="none">lost (worker)</text>
      <text x="457.8799" xml:space="preserve" y="447.1543" clip-path="url(#clipPath2)" font-family="sans-serif" stroke="none">Flask + Nginx + lost </text>
      <text x="505.7305" xml:space="preserve" y="461.123" clip-path="url(#clipPath2)" font-family="sans-serif" stroke="none">8080</text>
    </g>
    <g text-rendering="geometricPrecision" stroke-miterlimit="1.45" shape-rendering="geometricPrecision" transform="matrix(1,0,0,1,-28,-112)" stroke-linecap="butt">
      <path fill="none" d="M624 259 L757 259 L757 312 L624 312 Z" clip-path="url(#clipPath2)"/>
      <text x="669.9014" xml:space="preserve" y="275.6855" clip-path="url(#clipPath2)" font-family="sans-serif" stroke="none">db-lost</text>
      <text x="669.8984" xml:space="preserve" y="289.6543" clip-path="url(#clipPath2)" font-family="sans-serif" stroke="none">MySQL</text>
      <text x="675.2305" xml:space="preserve" y="303.623" clip-path="url(#clipPath2)" font-family="sans-serif" stroke="none">3306</text>
    </g>
    <g text-rendering="geometricPrecision" stroke-miterlimit="1.45" shape-rendering="geometricPrecision" transform="matrix(1,0,0,1,-28,-112)" stroke-linecap="butt">
      <path fill="none" d="M454 259 L587 259 L587 312 L454 312 Z" clip-path="url(#clipPath2)"/>
      <text x="482.25" xml:space="preserve" y="275.6855" clip-path="url(#clipPath2)" font-family="sans-serif" stroke="none">rabbitmqlost</text>
      <text x="491.1182" xml:space="preserve" y="289.6543" clip-path="url(#clipPath2)" font-family="sans-serif" stroke="none">RabbitMQ</text>
      <text x="505.2305" xml:space="preserve" y="303.623" clip-path="url(#clipPath2)" font-family="sans-serif" stroke="none">5672</text>
    </g>
    <g text-rendering="geometricPrecision" stroke-miterlimit="1.45" shape-rendering="geometricPrecision" transform="matrix(1,0,0,1,-28,-112)" stroke-linecap="butt">
      <path fill="none" d="M180 265.5 L291 265.5 L291 305.5 L180 305.5 Z" clip-path="url(#clipPath2)"/>
      <text x="184.2041" xml:space="preserve" y="282.6699" clip-path="url(#clipPath2)" font-family="sans-serif" stroke="none">Lost Data Folder </text>
      <text x="198.6504" xml:space="preserve" y="296.6387" clip-path="url(#clipPath2)" font-family="sans-serif" stroke="none">(Filesystem)</text>
    </g>
    <g text-rendering="geometricPrecision" stroke-miterlimit="1.45" shape-rendering="geometricPrecision" transform="matrix(1,0,0,1,-28,-112)" stroke-linecap="butt">
      <path fill="none" d="M801 416.5 L934 416.5 L934 469.5 L801 469.5 Z" clip-path="url(#clipPath2)"/>
      <text x="827.8848" xml:space="preserve" y="433.1855" clip-path="url(#clipPath2)" font-family="sans-serif" stroke="none">phpmyadmin</text>
      <text x="828.125" xml:space="preserve" y="447.1543" clip-path="url(#clipPath2)" font-family="sans-serif" stroke="none">phpMyAdmin</text>
      <text x="859.8652" xml:space="preserve" y="461.123" clip-path="url(#clipPath2)" font-family="sans-serif" stroke="none">80</text>
    </g>
    <g text-rendering="geometricPrecision" stroke-miterlimit="1.45" shape-rendering="geometricPrecision" font-family="sans-serif" transform="matrix(1,0,0,1,-28,-112)" stroke-linecap="butt">
      <text x="513.3652" xml:space="preserve" y="580.6543" clip-path="url(#clipPath2)" stroke="none">80</text>
    </g>
    <g text-rendering="geometricPrecision" stroke-miterlimit="1.45" shape-rendering="geometricPrecision" font-family="sans-serif" transform="matrix(1,0,0,1,-28,-112)" stroke-linecap="butt">
      <text x="675.2305" xml:space="preserve" y="361.1543" clip-path="url(#clipPath2)" stroke="none">3306</text>
    </g>
    <g text-rendering="geometricPrecision" stroke-miterlimit="1.45" shape-rendering="geometricPrecision" transform="matrix(1,0,0,1,-28,-112)" stroke-linecap="butt">
      <path fill="none" d="M628 416.5 L761 416.5 L761 469.5 L628 469.5 Z" clip-path="url(#clipPath2)"/>
      <text x="647.4023" xml:space="preserve" y="440.1699" clip-path="url(#clipPath2)" font-family="sans-serif" stroke="none">lost-cv (worker)</text>
      <text x="641.8477" xml:space="preserve" y="454.1387" clip-path="url(#clipPath2)" font-family="sans-serif" stroke="none">lost + cv libraries</text>
    </g>
    <g text-rendering="geometricPrecision" stroke-miterlimit="1.45" shape-rendering="geometricPrecision" font-family="sans-serif" transform="matrix(1,0,0,1,-28,-112)" stroke-linecap="butt">
      <text x="852.2305" xml:space="preserve" y="571.6543" clip-path="url(#clipPath2)" stroke="none">8081</text>
    </g>
    <g text-rendering="geometricPrecision" stroke-miterlimit="1.45" shape-rendering="geometricPrecision" font-family="sans-serif" transform="matrix(1,0,0,1,-28,-112)" stroke-linecap="butt">
      <text x="505.7305" xml:space="preserve" y="361.1543" clip-path="url(#clipPath2)" stroke="none">5672</text>
    </g>
    <g text-rendering="geometricPrecision" shape-rendering="geometricPrecision" transform="matrix(0.9656,0,0,0.965,638.2225,542.1105)">
      <g clip-path="url(#clipPath3)">
        <svg xml:space="preserve" opacity="1" writing-mode="lr-tb" stop-color="rgb(0, 0, 0)" shape-rendering="auto" glyph-orientation-horizontal="0deg" color-profile="auto" lighting-color="rgb(255, 255, 255)" color="rgb(0, 0, 0)" font-weight="400" alignment-baseline="auto" font-style="normal" version="1.1" color-interpolation-filters="linearrgb" text-anchor="start" stroke-linecap="butt" color-interpolation="srgb" font-variant="normal" word-spacing="normal" fill-opacity="1" text-rendering="auto" clip-path="none" text-decoration="none" letter-spacing="normal" viewBox="0 0 57 65" glyph-orientation-vertical="auto" display="inline" font-size-adjust="none" overflow="visible" fill="rgb(0, 0, 0)" font-stretch="normal" stroke-dasharray="none" id="svg1.Ebene_1" stroke-miterlimit="4" stop-opacity="1" color-rendering="auto" font-size="12" pointer-events="visiblepainted" mask="none" direction="ltr" baseline-shift="baseline" enable-background="new 0 0 57 65" fill-rule="nonzero" image-rendering="auto" stroke-dashoffset="0" width="57px" marker-end="none" clip="auto" cursor="auto" stroke="none" filter="none" visibility="visible" kerning="auto" stroke-width="1" font-family="&quot;Arial&quot;,&quot;Helvetica&quot;,sans-serif" flood-opacity="1" clip-rule="nonzero" src="none" height="65px" unicode-bidi="normal" stroke-linejoin="miter" stroke-opacity="1" flood-color="rgb(0, 0, 0)" dominant-baseline="auto" marker-start="none" x="0px" marker-mid="none" y="0px">
<g>
	
		<linearGradient gradientTransform="matrix(1 0 0 1 0.0801 -771.6914)" x1="26.5796" x2="27.8207" gradientUnits="userSpaceOnUse" y1="796.6533" y2="826.4517" id="svg1.SVGID_1_">
		<stop offset="0.2711" style="stop-color:#FFAB4F"/>
		<stop offset="1" style="stop-color:#FFD28F"/>
	</linearGradient>
	<path fill="url(#svg1.SVGID_1_)" d="M49.529,52.225c-4.396-4.396-10.951-5.884-12.063-6.109   V38.8H19.278c0,0,0.038,6.903,0,6.868c0,0-6.874,0.997-12.308,6.432C1.378,57.691,0.5,63.77,0.5,63.77   c0,1.937,1.575,3.492,3.523,3.492h48.51c1.947,0,3.521-1.558,3.521-3.492C56.055,63.768,54.211,56.906,49.529,52.225z" stroke-miterlimit="10" stroke="#ED9135"/>
	<path fill="#ECECEC" id="svg1.body_9_" d="M0.5,63.768c0,1.938,1.575,3.494,3.523,3.494h48.51   c1.947,0,3.521-1.559,3.521-3.494c0,0-1.844-6.861-6.525-11.543c-4.815-4.814-11.244-6.146-11.244-6.146   c-1.771,1.655-5.61,3.802-10.063,3.802c-4.453,0-8.292-2.146-10.063-3.802c0,0-5.755,0.586-11.189,6.021   C1.378,57.689,0.5,63.768,0.5,63.768z" stroke-miterlimit="10" stroke="#9B9B9B"/>
	<path fill="#2068A3" d="M28.106,34.486c-8.112,0-12.688,4.313-12.688,10.438c0,7.422,12.688,10.438,12.688,10.438   s14.688-3.016,14.688-10.438C42.793,39.75,36.215,34.486,28.106,34.486z M26.288,54.051c0,0-7.135-2.093-8.805-7.201   c-0.222-0.682,0.147-1.156,0.795-1.522V38.8h20.188v6.663c0.235,0.352,1.109,0.737,1.229,1.387   C40.445,50.917,26.288,54.051,26.288,54.051z" stroke="#2068A3"/>
	<path fill="#5491CF" d="M49.529,52.225c-2.239-2.24-5.041-3.724-7.396-4.67   c-2.854,5.51-14.027,7.807-14.027,7.807s-10.472-2.489-12.387-8.514c-2.439,0.771-5.787,2.287-8.749,5.25   c-5.592,5.592-6.47,11.67-6.47,11.67c0,1.937,1.575,3.492,3.523,3.492h48.51c1.948,0,3.522-1.558,3.522-3.492   C56.055,63.768,54.211,56.906,49.529,52.225z" stroke-miterlimit="10" stroke="#2068A3"/>
	<path fill="#5491CF" d="M13.404,45.173c1.15-1.81,2.039-3.832,3.332-5.397c-0.514,1.027-1.669,4.084-1.669,5.148   c0,5.186,10.366,9.079,14.688,10.438c-3.472,1.627-9.134-1.498-11.34-2.365c-3.601-1.419-4.071-3.063-5.89-4.857   C12.523,48.135,12.878,46,13.404,45.173z" stroke="#2068A3"/>
	<path fill="#5491CF" d="M45.777,44.924c-1.317-1.568-5.11-9.424-6.604-6.617c0.516,1.025,3.617,3.693,3.617,6.617   c0,5.186-10.266,8.576-16.693,9.145c1.429,4.934,11.367,1.293,13.804-0.316c3.563-2.354,4.557-5.133,7.852-3.705   C47.754,50.045,48.006,47.574,45.777,44.924z" stroke="#2068A3"/>
	<path fill="none" d="M30.777,55.167c0.357,0.836-0.153,1.983-0.352,2.813   c-0.256,1.084-0.072,2.104,0.102,3.186c0.164,1.02,0.156,2.107,0.25,3.167c0.082,0.916,0.482,1.849,0.357,2.75" stroke="#2068A3" stroke-linecap="round"/>
	<path fill="none" d="M23.695,54.417c-0.508,0.584-0.476,2.209-0.398,3   c0.116,1.183,0.456,2.099,0.333,3.333c-0.192,1.943,0.154,4.479-0.436,6.333" stroke="#2068A3" stroke-linecap="round"/>
	
		<radialGradient gradientTransform="matrix(1 0 0 1 0.0801 -771.6914)" gradientUnits="userSpaceOnUse" r="23.4236" cx="27.8228" id="svg1.face_x5F_white_1_" cy="798.418" fx="23.2533" fy="795.9283">
		<stop offset="0" style="stop-color:#FFD28F"/>
		<stop offset="1" style="stop-color:#FFAB4F"/>
	</radialGradient>
	<path fill="url(#svg1.face_x5F_white_1_)" id="svg1.face_x5F_white_3_" d="M43.676,24.357   c0.086,10.2-6.738,18.52-15.245,18.586c-8.504,0.068-15.468-8.146-15.554-18.344C12.794,14.4,19.618,6.079,28.123,6.012   C36.627,5.945,43.59,14.158,43.676,24.357z" stroke-miterlimit="10" stroke="#ED9135"/>
	
		<linearGradient gradientTransform="matrix(0.275 0 0 -0.2733 -589.5001 -1032.9376)" x1="2236.3486" x2="2259.9785" gradientUnits="userSpaceOnUse" y1="-3813.3281" y2="-3906.7793" id="svg1.face_highlight_2_">
		<stop offset="0" style="stop-color:#FFFFFF;stop-opacity:0.72"/>
		<stop offset="1" style="stop-color:#FFFFFF;stop-opacity:0.2067"/>
	</linearGradient>
	<path fill="url(#svg1.face_highlight_2_)" id="svg1.face_highlight_1_" d="M27.958,7.333c-6.035,0.047-10.747,4.493-12.787,10.386   c-0.664,1.919-0.294,4.043,0.98,5.629c2.73,3.398,5.729,6.283,9.461,8.088c3.137,1.518,7.535,2.384,11.893,1.247   c2.274-0.592,3.988-2.459,4.375-4.766c0.181-1.094,0.293-2.289,0.283-3.553C42.083,14.952,36.271,7.268,27.958,7.333z"/>
	<path fill="#FFB380" d="M32.215,10.938c0,0,5.688,2.75,7.688,8.125c2.104,5.652,4.123,8.232,4.188,8   c1.875-6.794,1.063-21.438-10.17-21.587C13.467-2.187,8.342,17.438,10.029,25.126c1.078,4.911,2.234,6.686,3.938,8.08   C13.966,33.205,15.028,18.563,32.215,10.938z" stroke="#953606"/>
	<path fill="#CC9869" d="M32.215,10.938   c0,0,5.688,2.75,7.688,8.125c2.104,5.652,4.123,8.232,4.188,8c1.875-6.794,1.063-21.438-10.17-21.587   C13.467-2.187,8.342,17.438,10.029,25.126c1.078,4.911,2.234,6.686,3.938,8.08C13.966,33.205,15.028,18.563,32.215,10.938z" stroke="#99724F" stroke-linecap="round" stroke-linejoin="round"/>
</g>
</svg>
      </g>
    </g>
    <g text-rendering="geometricPrecision" stroke-miterlimit="1.45" stroke-dasharray="6,2" shape-rendering="geometricPrecision" transform="matrix(1,0,0,1,-28,-112)" stroke-linecap="butt">
      <path fill="none" d="M446.4693 443 L235.5 443 L235.5 313.5336" clip-path="url(#clipPath2)"/>
    </g>
    <g text-rendering="geometricPrecision" stroke-miterlimit="1.45" stroke-dasharray="6,2" shape-rendering="geometricPrecision" transform="matrix(1,0,0,1,-28,-112)" stroke-linecap="butt">
      <path d="M454.4693 443 L442.4693 438 L445.4693 443 L442.4693 448 Z" stroke="none" clip-path="url(#clipPath2)"/>
      <path d="M235.5 305.5336 L230.5 317.5336 L235.5 314.5336 L240.5 317.5336 Z" clip-path="url(#clipPath2)" stroke="none"/>
      <path fill="none" d="M690.5 251.005 L690.5 179 L235.5 179 L235.5 257.5052" clip-path="url(#clipPath2)"/>
      <path d="M690.5 259.005 L695.5 247.005 L690.5 250.005 L685.5 247.005 Z" clip-path="url(#clipPath2)" stroke="none"/>
      <path d="M235.5 265.5052 L240.5 253.5052 L235.5 256.5052 L230.5 253.5052 Z" clip-path="url(#clipPath2)" stroke="none"/>
      <path fill="none" d="M298.9901 285.5 L446.0172 285.5" clip-path="url(#clipPath2)"/>
      <path d="M290.9901 285.5 L302.9901 290.5 L299.9901 285.5 L302.9901 280.5 Z" clip-path="url(#clipPath2)" stroke="none"/>
      <path d="M454.0172 285.5 L442.0172 280.5 L445.0172 285.5 L442.0172 290.5 Z" clip-path="url(#clipPath2)" stroke="none"/>
      <path fill="none" stroke-dasharray="none" d="M521 469.4979 L521 548.5155" clip-path="url(#clipPath2)"/>
      <path stroke-dasharray="none" d="M521 556.5155 L526 544.5155 L521 547.5155 L516 544.5155 Z" clip-path="url(#clipPath2)" stroke="none"/>
      <path fill="none" stroke-dasharray="none" d="M690.5 311.9983 L690.5 329.0041" clip-path="url(#clipPath2)"/>
      <path stroke-dasharray="none" d="M690.5 337.0041 L695.5 325.0041 L690.5 328.0041 L685.5 325.0041 Z" clip-path="url(#clipPath2)" stroke="none"/>
      <path fill="none" stroke-dasharray="none" d="M573.2653 416.4819 L661.8708 371.5257" clip-path="url(#clipPath2)"/>
      <path stroke-dasharray="none" d="M669.0051 367.906 L656.0414 368.8767 L660.9791 371.9782 L660.566 377.7945 Z" clip-path="url(#clipPath2)" stroke="none"/>
      <path fill="none" stroke-dasharray="none" d="M812.9221 416.4819 L719.1852 370.9375" clip-path="url(#clipPath2)"/>
      <path stroke-dasharray="none" d="M711.9896 367.4413 L720.5979 377.1828 L720.0847 371.3745 L724.9681 368.1883 Z" clip-path="url(#clipPath2)" stroke="none"/>
      <path fill="none" stroke-dasharray="none" d="M693.2676 416.5029 L691.8028 385.0097" clip-path="url(#clipPath2)"/>
      <path stroke-dasharray="none" d="M691.4311 377.0183 L686.994 389.2377 L691.8492 386.0086 L696.9833 388.773 Z" clip-path="url(#clipPath2)" stroke="none"/>
      <path fill="none" d="M694.5 477.521 L694.5 528 L96.5 528 L96.5 285.5 L172.0154 285.5" clip-path="url(#clipPath2)"/>
      <path d="M694.5 469.521 L689.5 481.521 L694.5 478.521 L699.5 481.521 Z" clip-path="url(#clipPath2)" stroke="none"/>
      <path d="M180.0154 285.5 L168.0154 280.5 L171.0154 285.5 L168.0154 290.5 Z" clip-path="url(#clipPath2)" stroke="none"/>
      <path fill="none" stroke-dasharray="none" d="M867.5 469.4745 L867.5 539.5407" clip-path="url(#clipPath2)"/>
      <path stroke-dasharray="none" d="M867.5 547.5407 L872.5 535.5407 L867.5 538.5407 L862.5 535.5407 Z" clip-path="url(#clipPath2)" stroke="none"/>
      <path fill="none" stroke-dasharray="none" d="M520.6853 311.9983 L520.8042 329.0043" clip-path="url(#clipPath2)"/>
      <path stroke-dasharray="none" d="M520.8602 337.0042 L525.7761 324.9695 L520.7972 328.0044 L515.7764 325.0394 Z" clip-path="url(#clipPath2)" stroke="none"/>
      <path fill="none" stroke-dasharray="none" d="M521 416.5029 L521 385.0183" clip-path="url(#clipPath2)"/>
      <path stroke-dasharray="none" d="M521 377.0183 L516 389.0183 L521 386.0183 L526 389.0183 Z" clip-path="url(#clipPath2)" stroke="none"/>
      <path fill="none" stroke-dasharray="none" d="M641.0013 416.4819 L549.6426 371.1975" clip-path="url(#clipPath2)"/>
      <path stroke-dasharray="none" d="M542.4749 367.6446 L551.006 377.4538 L550.5386 371.6416 L555.4471 368.494 Z" clip-path="url(#clipPath2)" stroke="none"/>
      <path fill="none" stroke-dasharray="none" d="M710.3175 676.0508 L839.389 586.9135" clip-path="url(#clipPath2)"/>
      <path stroke-dasharray="none" d="M845.9718 582.3674 L833.2563 585.0723 L838.5662 587.4818 L838.939 593.3008 Z" clip-path="url(#clipPath2)" stroke="none"/>
      <path fill="none" stroke-dasharray="none" d="M674.8669 674.4733 L549.2729 594.5026" clip-path="url(#clipPath2)"/>
      <path stroke-dasharray="none" d="M542.5248 590.2057 L549.9615 600.8686 L550.1165 595.0397 L555.3326 592.4334 Z" clip-path="url(#clipPath2)" stroke="none"/>
    </g>
  </g>
</svg>
